{
	"asset":{
		"version":"2.0",
		"generator":"Created using the official Cinema 4D glTF Exporter 1.000x290161"
	},
	"scenes":[{
		"nodes":[0,
		1,
		2,
		3,
		4,
		5,
		6,
		7,
		8]
	}],
	"nodes":[{
		"name":"Sphere.1",
		"translation":[44.007442474365237,
		107.57354736328125,
		50.050785064697269],
		"rotation":[0.0,
		0.0,
		0.0,
		-1.0],
		"scale":[1.0,
		1.0,
		1.0],
		"mesh":0
	},
	{
		"name":"Sphere",
		"translation":[0.0,
		107.57354736328125,
		66.47012329101563],
		"rotation":[0.0,
		0.0,
		0.0,
		-1.0],
		"scale":[1.0,
		1.0,
		1.0],
		"mesh":1
	},
	{
		"name":"EYEBROWS",
		"translation":[-4.121001720428467,
		45.43873977661133,
		44.526065826416019],
		"rotation":[0.0,
		0.0,
		0.0,
		-1.0],
		"scale":[1.0,
		1.0,
		1.0],
		"mesh":2
	},
	{
		"name":"HAT",
		"translation":[0.05647735297679901,
		124.47320556640625,
		0.0],
		"rotation":[0.0,
		0.0,
		0.0,
		-1.0],
		"scale":[1.0,
		1.0,
		1.0],
		"mesh":3
	},
	{
		"name":"HAIR",
		"translation":[0.0,
		51.67674255371094,
		-19.226627349853517],
		"rotation":[0.0,
		0.0,
		0.0,
		-1.0],
		"scale":[1.0,
		1.0,
		1.0],
		"mesh":4
	},
	{
		"name":"HEAD",
		"translation":[0.0,
		55.51807403564453,
		0.0],
		"rotation":[0.0,
		0.0,
		0.0,
		-1.0],
		"scale":[1.0,
		1.0,
		1.0],
		"mesh":5
	},
	{
		"name":"NECK",
		"translation":[0.0,
		9.410877227783204,
		0.0],
		"rotation":[0.0,
		0.0,
		0.0,
		-1.0],
		"scale":[1.0,
		1.0,
		1.0],
		"mesh":6
	},
	{
		"name":"eye",
		"translation":[-59.66011047363281,
		52.425193786621097,
		12.640942573547364],
		"rotation":[0.0,
		0.0,
		0.0,
		-1.0],
		"scale":[1.0,
		1.0,
		1.0],
		"mesh":7
	},
	{
		"name":"MOUSE",
		"translation":[21.215198516845704,
		61.674652099609378,
		51.41399002075195],
		"rotation":[-0.006834386847913265,
		-0.17846402525901795,
		0.0061279963701963429,
		-0.9839036464691162],
		"scale":[1.0,
		1.0,
		1.0],
		"mesh":8
	}],
	"meshes":[{
		"primitives":[{
			"attributes":{
				"POSITION":1,
				"NORMAL":2,
				"TEXCOORD_0":3
			},
			"indices":0,
			"material":0
		}]
	},
	{
		"primitives":[{
			"attributes":{
				"POSITION":5,
				"NORMAL":6,
				"TEXCOORD_0":7
			},
			"indices":4,
			"material":0
		}]
	},
	{
		"primitives":[{
			"attributes":{
				"POSITION":9,
				"NORMAL":10,
				"TEXCOORD_0":11
			},
			"indices":8,
			"material":0
		}]
	},
	{
		"primitives":[{
			"attributes":{
				"POSITION":13,
				"NORMAL":14,
				"TEXCOORD_0":15
			},
			"indices":12,
			"material":0
		}]
	},
	{
		"primitives":[{
			"attributes":{
				"POSITION":17,
				"NORMAL":18,
				"TEXCOORD_0":19
			},
			"indices":16,
			"material":1
		}]
	},
	{
		"primitives":[{
			"attributes":{
				"POSITION":21,
				"NORMAL":22,
				"TEXCOORD_0":23
			},
			"indices":20,
			"material":2
		}]
	},
	{
		"primitives":[{
			"attributes":{
				"POSITION":25,
				"NORMAL":26,
				"TEXCOORD_0":27
			},
			"indices":24,
			"material":2
		}]
	},
	{
		"primitives":[{
			"attributes":{
				"POSITION":29,
				"NORMAL":30,
				"TEXCOORD_0":31
			},
			"indices":28,
			"material":3
		}]
	},
	{
		"primitives":[{
			"attributes":{
				"POSITION":33,
				"NORMAL":34,
				"TEXCOORD_0":35
			},
			"indices":32,
			"material":0
		}]
	}],
	"accessors":[{
		"bufferView":0,
		"type":"SCALAR",
		"componentType":5123,
		"count":7200,
		"byteOffset":0,
		"min":[0],
		"max":[1323]
	},
	{
		"bufferView":1,
		"type":"VEC3",
		"componentType":5126,
		"count":1324,
		"byteOffset":0,
		"min":[-4.990133762359619,
		-5.0,
		-4.980286598205566],
		"max":[4.990133762359619,
		5.0,
		4.980286598205566]
	},
	{
		"bufferView":1,
		"type":"VEC3",
		"componentType":5126,
		"count":1324,
		"byteOffset":12,
		"min":[-0.9980266094207764,
		-1.0,
		-0.9960625171661377],
		"max":[0.9980266094207764,
		1.0,
		0.9960625171661377]
	},
	{
		"bufferView":1,
		"type":"VEC2",
		"componentType":5126,
		"count":1324,
		"byteOffset":24,
		"min":[0.0,
		0.0],
		"max":[1.0,
		1.0]
	},
	{
		"bufferView":2,
		"type":"SCALAR",
		"componentType":5123,
		"count":7200,
		"byteOffset":0,
		"min":[0],
		"max":[1323]
	},
	{
		"bufferView":3,
		"type":"VEC3",
		"componentType":5126,
		"count":1324,
		"byteOffset":0,
		"min":[-4.990133762359619,
		-5.0,
		-4.980286598205566],
		"max":[4.990133762359619,
		5.0,
		4.980286598205566]
	},
	{
		"bufferView":3,
		"type":"VEC3",
		"componentType":5126,
		"count":1324,
		"byteOffset":12,
		"min":[-0.9980266094207764,
		-1.0,
		-0.9960625171661377],
		"max":[0.9980266094207764,
		1.0,
		0.9960625171661377]
	},
	{
		"bufferView":3,
		"type":"VEC2",
		"componentType":5126,
		"count":1324,
		"byteOffset":24,
		"min":[0.0,
		0.0],
		"max":[1.0,
		1.0]
	},
	{
		"bufferView":4,
		"type":"SCALAR",
		"componentType":5123,
		"count":2112,
		"byteOffset":0,
		"min":[0],
		"max":[491]
	},
	{
		"bufferView":5,
		"type":"VEC3",
		"componentType":5126,
		"count":492,
		"byteOffset":0,
		"min":[-10.05019760131836,
		75.58987426757813,
		-43.17365264892578],
		"max":[54.35367202758789,
		82.86192321777344,
		13.429224967956543]
	},
	{
		"bufferView":5,
		"type":"VEC3",
		"componentType":5126,
		"count":492,
		"byteOffset":12,
		"min":[-0.9872991442680359,
		-1.0,
		-0.9995632767677307],
		"max":[0.9873158931732178,
		1.0,
		0.9995632767677307]
	},
	{
		"bufferView":5,
		"type":"VEC2",
		"componentType":5126,
		"count":492,
		"byteOffset":24,
		"min":[0.0,
		0.0],
		"max":[1.0,
		1.0]
	},
	{
		"bufferView":6,
		"type":"SCALAR",
		"componentType":5123,
		"count":15792,
		"byteOffset":0,
		"min":[0],
		"max":[3243]
	},
	{
		"bufferView":7,
		"type":"VEC3",
		"componentType":5126,
		"count":3244,
		"byteOffset":0,
		"min":[-117.20196533203125,
		23.34075355529785,
		-117.1454849243164],
		"max":[117.08899688720703,
		224.47320556640626,
		117.1454849243164]
	},
	{
		"bufferView":7,
		"type":"VEC3",
		"componentType":5126,
		"count":3244,
		"byteOffset":12,
		"min":[-1.0,
		-1.0,
		-1.0],
		"max":[1.0,
		1.0,
		1.0]
	},
	{
		"bufferView":7,
		"type":"VEC2",
		"componentType":5126,
		"count":3244,
		"byteOffset":24,
		"min":[0.0,
		0.0],
		"max":[1.0,
		1.0]
	},
	{
		"bufferView":8,
		"type":"SCALAR",
		"componentType":5123,
		"count":139992,
		"byteOffset":0,
		"min":[0],
		"max":[27037]
	},
	{
		"bufferView":9,
		"type":"VEC3",
		"componentType":5126,
		"count":27038,
		"byteOffset":0,
		"min":[-58.980438232421878,
		-63.94615936279297,
		-39.773372650146487],
		"max":[61.823081970214847,
		132.37709045410157,
		77.68413543701172]
	},
	{
		"bufferView":9,
		"type":"VEC3",
		"componentType":5126,
		"count":27038,
		"byteOffset":12,
		"min":[-1.0,
		-1.0,
		-1.0],
		"max":[1.0,
		1.0,
		1.0]
	},
	{
		"bufferView":9,
		"type":"VEC2",
		"componentType":5126,
		"count":27038,
		"byteOffset":24,
		"min":[0.0,
		0.0],
		"max":[1.0,
		1.0]
	},
	{
		"bufferView":10,
		"type":"SCALAR",
		"componentType":5123,
		"count":4200,
		"byteOffset":0,
		"min":[0],
		"max":[811]
	},
	{
		"bufferView":11,
		"type":"VEC3",
		"componentType":5126,
		"count":812,
		"byteOffset":0,
		"min":[-56.99573516845703,
		-37.261436462402347,
		-59.86903381347656],
		"max":[61.034202575683597,
		95.66141510009766,
		152.57809448242188]
	},
	{
		"bufferView":11,
		"type":"VEC3",
		"componentType":5126,
		"count":812,
		"byteOffset":12,
		"min":[-0.9999998807907105,
		-0.9999999403953552,
		-0.9998854398727417],
		"max":[0.9998845458030701,
		0.9983205795288086,
		0.9999999403953552]
	},
	{
		"bufferView":11,
		"type":"VEC2",
		"componentType":5126,
		"count":812,
		"byteOffset":24,
		"min":[0.0,
		0.0],
		"max":[1.0,
		1.0]
	},
	{
		"bufferView":12,
		"type":"SCALAR",
		"componentType":5123,
		"count":480,
		"byteOffset":0,
		"min":[0],
		"max":[118]
	},
	{
		"bufferView":13,
		"type":"VEC3",
		"componentType":5126,
		"count":119,
		"byteOffset":0,
		"min":[-21.85594367980957,
		-24.76004981994629,
		-21.85594367980957],
		"max":[21.85594367980957,
		24.76004981994629,
		21.85594367980957]
	},
	{
		"bufferView":13,
		"type":"VEC3",
		"componentType":5126,
		"count":119,
		"byteOffset":12,
		"min":[-1.0,
		-1.0,
		-1.0],
		"max":[1.0,
		1.0,
		1.0]
	},
	{
		"bufferView":13,
		"type":"VEC2",
		"componentType":5126,
		"count":119,
		"byteOffset":24,
		"min":[0.0,
		0.0],
		"max":[1.0,
		1.0]
	},
	{
		"bufferView":14,
		"type":"SCALAR",
		"componentType":5123,
		"count":23040,
		"byteOffset":0,
		"min":[0],
		"max":[4145]
	},
	{
		"bufferView":15,
		"type":"VEC3",
		"componentType":5126,
		"count":4146,
		"byteOffset":0,
		"min":[44.21181106567383,
		43.642520904541019,
		15.06216049194336],
		"max":[113.01854705810547,
		65.90501403808594,
		58.009910583496097]
	},
	{
		"bufferView":15,
		"type":"VEC3",
		"componentType":5126,
		"count":4146,
		"byteOffset":12,
		"min":[-1.0,
		-1.0,
		-1.0],
		"max":[0.9999999403953552,
		1.0,
		1.0]
	},
	{
		"bufferView":15,
		"type":"VEC2",
		"componentType":5126,
		"count":4146,
		"byteOffset":24,
		"min":[0.0,
		0.0390625],
		"max":[1.0,
		0.9609375]
	},
	{
		"bufferView":16,
		"type":"SCALAR",
		"componentType":5123,
		"count":1056,
		"byteOffset":0,
		"min":[0],
		"max":[218]
	},
	{
		"bufferView":17,
		"type":"VEC3",
		"componentType":5126,
		"count":219,
		"byteOffset":0,
		"min":[-17.913597106933595,
		-3.98168683052063,
		-5.2612996101379398],
		"max":[18.003297805786134,
		0.0183130893856287,
		1.9603703022003174]
	},
	{
		"bufferView":17,
		"type":"VEC3",
		"componentType":5126,
		"count":219,
		"byteOffset":12,
		"min":[-0.9970507621765137,
		-0.9999895095825195,
		-0.9998301267623901],
		"max":[0.9663088321685791,
		0.9999895095825195,
		0.999823808670044]
	},
	{
		"bufferView":17,
		"type":"VEC2",
		"componentType":5126,
		"count":219,
		"byteOffset":24,
		"min":[0.0,
		0.0],
		"max":[1.0,
		1.0]
	}],
	"bufferViews":[{
		"buffer":0,
		"byteOffset":0,
		"byteLength":14400,
		"target":34963
	},
	{
		"buffer":0,
		"byteOffset":14400,
		"byteLength":42368,
		"target":34962,
		"byteStride":32
	},
	{
		"buffer":1,
		"byteOffset":0,
		"byteLength":14400,
		"target":34963
	},
	{
		"buffer":1,
		"byteOffset":14400,
		"byteLength":42368,
		"target":34962,
		"byteStride":32
	},
	{
		"buffer":2,
		"byteOffset":0,
		"byteLength":4224,
		"target":34963
	},
	{
		"buffer":2,
		"byteOffset":4224,
		"byteLength":15744,
		"target":34962,
		"byteStride":32
	},
	{
		"buffer":3,
		"byteOffset":0,
		"byteLength":31584,
		"target":34963
	},
	{
		"buffer":3,
		"byteOffset":31584,
		"byteLength":103808,
		"target":34962,
		"byteStride":32
	},
	{
		"buffer":4,
		"byteOffset":0,
		"byteLength":279984,
		"target":34963
	},
	{
		"buffer":4,
		"byteOffset":279984,
		"byteLength":865216,
		"target":34962,
		"byteStride":32
	},
	{
		"buffer":5,
		"byteOffset":0,
		"byteLength":8400,
		"target":34963
	},
	{
		"buffer":5,
		"byteOffset":8400,
		"byteLength":25984,
		"target":34962,
		"byteStride":32
	},
	{
		"buffer":6,
		"byteOffset":0,
		"byteLength":960,
		"target":34963
	},
	{
		"buffer":6,
		"byteOffset":960,
		"byteLength":3808,
		"target":34962,
		"byteStride":32
	},
	{
		"buffer":7,
		"byteOffset":0,
		"byteLength":46080,
		"target":34963
	},
	{
		"buffer":7,
		"byteOffset":46080,
		"byteLength":132672,
		"target":34962,
		"byteStride":32
	},
	{
		"buffer":8,
		"byteOffset":0,
		"byteLength":2112,
		"target":34963
	},
	{
		"buffer":8,
		"byteOffset":2112,
		"byteLength":7008,
		"target":34962,
		"byteStride":32
	}],
	"buffers":[{
		"uri":"data:application/octet-stream;base64,",
		"byteLength":56768
	},
	{
		"uri":"data:application/octet-stream;base64,",
		"byteLength":56768
	},
	{
		"uri":"data:application/octet-stream;base64,",
		"byteLength":19968
	},
	{
		"uri":"data:application/octet-stream;base64,",
		"byteLength":135392
	},
	{
		"uri":"data:application/octet-stream;base64,",
		"byteLength":1145200
	},
	{
		"uri":"data:application/octet-stream;base64,",
		"byteLength":34384
	},
	{
		"uri":"data:application/octet-stream;base64,",
		"byteLength":4768
	},
	{
		"uri":"data:application/octet-stream;base64,",
		"byteLength":178752
	},
	{
		"uri":"data:application/octet-stream;base64,",
		"byteLength":9120
	}],
	"materials":[{
		"pbrMetallicRoughness":{
			"baseColorFactor":[0.13333333333333334,
			0.07058823529411765,
			0.019607843137254906,
			1.0],
			"metallicFactor":1.0,
			"roughnessFactor":1.0
		},
		"emissiveFactor":[0.0,
		0.0,
		0.0],
		"alphaMode":"OPAQUE",
		"doubleSided":false,
		"name":"Mat"
	},
	{
		"pbrMetallicRoughness":{
			"baseColorFactor":[0.45098039215686278,
			0.1568627450980392,
			0.05098039215686275,
			1.0],
			"metallicFactor":1.0,
			"roughnessFactor":1.0
		},
		"emissiveFactor":[0.0,
		0.0,
		0.0],
		"alphaMode":"OPAQUE",
		"doubleSided":false,
		"name":"Mat.2"
	},
	{
		"pbrMetallicRoughness":{
			"baseColorFactor":[0.5773202614379084,
			0.6509803921568628,
			0.01960784313725493,
			1.0],
			"metallicFactor":1.0,
			"roughnessFactor":1.0
		},
		"emissiveFactor":[0.0,
		0.0,
		0.0],
		"alphaMode":"OPAQUE",
		"doubleSided":false,
		"name":"Mat.1"
	},
	{
		"pbrMetallicRoughness":{
			"baseColorFactor":[0.6431372549019607,
			0.27058823529411765,
			0.2627450980392157,
			1.0],
			"metallicFactor":1.0,
			"roughnessFactor":1.0
		},
		"emissiveFactor":[0.0,
		0.0,
		0.0],
		"alphaMode":"OPAQUE",
		"doubleSided":false,
		"name":"Mat.3"
	}]
}